<?xml version="1.0" encoding="UTF-8" standalone="no"?>
<!DOCTYPE svg PUBLIC "-//W3C//DTD SVG 1.1//EN" "http://www.w3.org/Graphics/SVG/1.1/DTD/svg11.dtd">
<svg width="100%" height="100%" viewBox="0 0 26246 14567" version="1.1" xmlns="http://www.w3.org/2000/svg" xmlns:xlink="http://www.w3.org/1999/xlink" xml:space="preserve" xmlns:serif="http://www.serif.com/" style="fill-rule:evenodd;clip-rule:evenodd;stroke-linejoin:round;stroke-miterlimit:2;">
    <g transform="matrix(4.16667,0,0,4.16667,0,0)">
        <rect x="0" y="0.882" width="6298.58" height="3495.12" style="fill:rgb(247,187,33);fill-opacity:0;fill-rule:nonzero;"/>
        <path d="M3618.74,1699.71L3830.82,1699.71C3914.63,1699.71 3978.75,1680.29 4022.72,1642.48C4067,1604.39 4089.28,1549.73 4089.28,1478.18C4089.28,1403.22 4068.11,1346.8 4025.14,1308.99C3982.43,1271.45 3917.47,1252.76 3830.82,1252.76L3522,1252.76L3186.97,1944.2L3091.84,2141.9L3091.5,2141.21L2837.9,2664.63L2713.59,2664.63L1944.47,1069.19L2795.92,1069.19L2983.84,1463.56L2875.74,1688.48L2668.04,1252.76L2248.48,1252.76L2775.74,2347.94L2983.96,1915.51L2983.56,1914.72L3091.9,1690.41L3092.11,1690.87L3391.38,1069.19L3813.54,1069.19C3970.41,1069.19 4089.28,1102.77 4169.68,1169.85C4250.11,1236.93 4290.55,1335.63 4290.55,1466.83C4290.55,1530.46 4278.23,1587.24 4253.1,1637.53C4227.94,1687.84 4192.39,1728.32 4146.04,1758.91C4230.87,1808.23 4294.93,1868.48 4337.94,1939.46C4381.25,2011.04 4403.05,2092.37 4403.05,2185.12C4403.05,2332.62 4354.79,2449.21 4258.02,2535.37C4160.98,2621.78 4029.49,2664.63 3863.86,2664.63L3341,2664.63L3199.66,2368.09L3307.96,2143.89L3468.58,2481.13L3902.82,2481.13C3993.58,2481.13 4065.27,2454.55 4117.4,2401.21C4169.78,2347.64 4195.83,2274.43 4195.83,2182.16C4195.83,2090.92 4169.68,2017.89 4117.4,1964.1C4065.12,1910.34 3993.51,1883.19 3902.82,1883.19L3618.74,1883.19L3618.74,1699.71Z" style="fill:rgb(35,33,34);"/>
    </g>
</svg>
