<svg width="800" height="400" viewBox="0 0 800 400" xmlns="http://www.w3.org/2000/svg"><rect x="0" y="0" width="800" height="400" fill="#fff"/><clipPath id="satori_cp-id-0"><rect x="363" y="128" width="75" height="65"/></clipPath><mask id="satori_om-id-0"><rect x="363" y="128" width="75" height="65" fill="#fff"/></mask><image x="363" y="128" width="75" height="65" href="data:image/svg+xml;utf8,%3Csvg fill=%22%23000%22 xmlns=%22http://www.w3.org/2000/svg%22 viewBox=%220 0 75 65%22 width=%2275%22 height=%2265%22%3E%3Cpath d=%22M37.59.25l36.95 64H.64l36.95-64z%22%3E%3C/path%3E%3C/svg%3E" preserveAspectRatio="none" clip-path="url(#satori_cp-id-0)" mask="url(#satori_om-id-0)"/><path fill="black" d="M221.1 263.0L216.3 263.0L209.6 239.7L215.0 239.7L218.8 255.8L219.0 255.8L223.3 239.7L227.9 239.7L232.1 255.9L232.3 255.9L236.2 239.7L241.5 239.7L234.9 263.0L230.1 263.0L225.7 247.7L225.5 247.7L221.1 263.0ZM250.1 263.3L250.1 263.3Q247.5 263.3 245.5 262.2Q243.6 261.1 242.5 259.1Q241.5 257.1 241.5 254.3L241.5 254.3Q241.5 251.6 242.5 249.6Q243.6 247.5 245.5 246.4Q247.4 245.3 250.0 245.3L250.0 245.3Q251.7 245.3 253.2 245.8Q254.7 246.4 255.8 247.5Q256.9 248.6 257.5 250.2Q258.2 251.9 258.2 254.1L258.2 254.1L258.2 255.5L243.4 255.5L243.4 252.5L253.6 252.5Q253.6 251.4 253.1 250.6Q252.7 249.8 251.9 249.3Q251.1 248.9 250.0 248.9L250.0 248.9Q248.9 248.9 248.1 249.4Q247.2 249.9 246.8 250.7Q246.3 251.6 246.3 252.6L246.3 252.6L246.3 255.5Q246.3 256.8 246.8 257.7Q247.2 258.7 248.1 259.2Q249.0 259.7 250.2 259.7L250.2 259.7Q251.0 259.7 251.7 259.5Q252.4 259.2 252.9 258.8Q253.3 258.3 253.6 257.7L253.6 257.7L258.1 258.0Q257.7 259.6 256.7 260.8Q255.6 262.0 254.0 262.6Q252.3 263.3 250.1 263.3ZM261.3 239.7L266.2 239.7L266.2 263.0L261.3 263.0L261.3 239.7ZM277.9 263.3L277.9 263.3Q275.2 263.3 273.3 262.2Q271.4 261.0 270.3 259.0Q269.3 256.9 269.3 254.3L269.3 254.3Q269.3 251.6 270.4 249.6Q271.4 247.6 273.3 246.4Q275.2 245.3 277.9 245.3L277.9 245.3Q280.2 245.3 281.9 246.1Q283.6 246.9 284.6 248.4Q285.6 249.9 285.7 252.0L285.7 252.0L281.1 252.0Q280.9 250.6 280.1 249.8Q279.3 249.0 278.0 249.0L278.0 249.0Q276.8 249.0 276.0 249.7Q275.2 250.3 274.7 251.4Q274.2 252.6 274.2 254.2L274.2 254.2Q274.2 255.9 274.7 257.1Q275.2 258.2 276 258.8Q276.8 259.5 278.0 259.5L278.0 259.5Q278.8 259.5 279.5 259.1Q280.1 258.8 280.6 258.1Q281 257.5 281.1 256.6L281.1 256.6L285.7 256.6Q285.6 258.6 284.6 260.1Q283.6 261.6 281.9 262.4Q280.2 263.3 277.9 263.3ZM296.7 263.3L296.7 263.3Q294.1 263.3 292.1 262.2Q290.2 261.0 289.2 259.0Q288.1 257.0 288.1 254.3L288.1 254.3Q288.1 251.6 289.2 249.6Q290.2 247.5 292.1 246.4Q294.1 245.3 296.7 245.3L296.7 245.3Q299.4 245.3 301.3 246.4Q303.2 247.5 304.3 249.6Q305.3 251.6 305.3 254.3L305.3 254.3Q305.3 257.0 304.3 259.0Q303.2 261.0 301.3 262.2Q299.4 263.3 296.7 263.3ZM296.7 259.5L296.7 259.5Q297.9 259.5 298.7 258.9Q299.5 258.2 300.0 257.0Q300.4 255.8 300.4 254.3L300.4 254.3Q300.4 252.7 300.0 251.5Q299.5 250.3 298.7 249.7Q297.9 249.0 296.7 249.0L296.7 249.0Q295.5 249.0 294.7 249.7Q293.9 250.3 293.4 251.5Q293.0 252.7 293.0 254.3L293.0 254.3Q293.0 255.8 293.4 257.0Q293.9 258.2 294.7 258.9Q295.5 259.5 296.7 259.5ZM313.3 263.0L308.5 263.0L308.5 245.5L313.1 245.5L313.1 248.6L313.3 248.6Q313.8 247.0 315.1 246.2Q316.4 245.3 318.1 245.3L318.1 245.3Q319.9 245.3 321.2 246.2Q322.5 247.1 322.9 248.6L322.9 248.6L323.1 248.6Q323.6 247.1 325.0 246.2Q326.4 245.3 328.3 245.3L328.3 245.3Q330.8 245.3 332.3 246.8Q333.8 248.4 333.8 251.2L333.8 251.2L333.8 263.0L329.0 263.0L329.0 252.2Q329.0 250.7 328.2 250.0Q327.4 249.3 326.3 249.3L326.3 249.3Q325.0 249.3 324.2 250.1Q323.5 250.9 323.5 252.3L323.5 252.3L323.5 263.0L318.8 263.0L318.8 252.1Q318.8 250.8 318.1 250.0Q317.3 249.3 316.1 249.3L316.1 249.3Q315.3 249.3 314.7 249.7Q314.0 250.1 313.7 250.8Q313.3 251.5 313.3 252.5L313.3 252.5L313.3 263.0ZM345.6 263.3L345.6 263.3Q342.9 263.3 341.0 262.2Q339.0 261.1 338.0 259.1Q336.9 257.1 336.9 254.3L336.9 254.3Q336.9 251.6 338.0 249.6Q339.0 247.5 340.9 246.4Q342.8 245.3 345.4 245.3L345.4 245.3Q347.1 245.3 348.6 245.8Q350.1 246.4 351.2 247.5Q352.4 248.6 353.0 250.2Q353.6 251.9 353.6 254.1L353.6 254.1L353.6 255.5L338.9 255.5L338.9 252.5L349.0 252.5Q349.0 251.4 348.6 250.6Q348.1 249.8 347.3 249.3Q346.5 248.9 345.5 248.9L345.5 248.9Q344.4 248.9 343.5 249.4Q342.7 249.9 342.2 250.7Q341.7 251.6 341.7 252.6L341.7 252.6L341.7 255.5Q341.7 256.8 342.2 257.7Q342.7 258.7 343.6 259.2Q344.5 259.7 345.7 259.7L345.7 259.7Q346.5 259.7 347.1 259.5Q347.8 259.2 348.3 258.8Q348.8 258.3 349.0 257.7L349.0 257.7L353.5 258.0Q353.2 259.6 352.1 260.8Q351.1 262.0 349.4 262.6Q347.8 263.3 345.6 263.3Z M363.0 245.5L373.5 245.5L373.5 249.1L363.0 249.1L363.0 245.5ZM365.3 258.2L365.3 241.3L370.2 241.3L370.2 257.6Q370.2 258.3 370.4 258.6Q370.6 259.0 371.0 259.1Q371.3 259.3 371.8 259.3L371.8 259.3Q372.2 259.3 372.5 259.2Q372.8 259.2 373.0 259.1L373.0 259.1L373.8 262.7Q373.4 262.8 372.8 263.0Q372.1 263.2 371.2 263.2L371.2 263.2Q369.4 263.3 368.1 262.7Q366.8 262.2 366.1 261.1Q365.3 259.9 365.3 258.2L365.3 258.2ZM384.3 263.3L384.3 263.3Q381.7 263.3 379.7 262.2Q377.8 261.0 376.8 259.0Q375.7 257.0 375.7 254.3L375.7 254.3Q375.7 251.6 376.8 249.6Q377.8 247.5 379.7 246.4Q381.7 245.3 384.3 245.3L384.3 245.3Q387.0 245.3 388.9 246.4Q390.8 247.5 391.9 249.6Q392.9 251.6 392.9 254.3L392.9 254.3Q392.9 257.0 391.9 259.0Q390.8 261.0 388.9 262.2Q387.0 263.3 384.3 263.3ZM384.3 259.5L384.3 259.5Q385.5 259.5 386.4 258.9Q387.2 258.2 387.6 257.0Q388.0 255.8 388.0 254.3L388.0 254.3Q388.0 252.7 387.6 251.5Q387.2 250.3 386.4 249.7Q385.5 249.0 384.3 249.0L384.3 249.0Q383.1 249.0 382.3 249.7Q381.5 250.3 381.1 251.5Q380.6 252.7 380.6 254.3L380.6 254.3Q380.6 255.8 381.1 257.0Q381.5 258.2 382.3 258.9Q383.1 259.5 384.3 259.5Z M408.3 263.0L403.5 263.0L403.5 245.5L408.1 245.5L408.1 248.6L408.3 248.6Q408.9 247.0 410.1 246.2Q411.4 245.3 413.2 245.3L413.2 245.3Q415.0 245.3 416.2 246.2Q417.5 247.1 417.9 248.6L417.9 248.6L418.1 248.6Q418.6 247.1 420.0 246.2Q421.4 245.3 423.4 245.3L423.4 245.3Q425.8 245.3 427.3 246.8Q428.9 248.4 428.9 251.2L428.9 251.2L428.9 263.0L424.0 263.0L424.0 252.2Q424.0 250.7 423.3 250.0Q422.5 249.3 421.3 249.3L421.3 249.3Q420 249.3 419.3 250.1Q418.5 250.9 418.5 252.3L418.5 252.3L418.5 263.0L413.8 263.0L413.8 252.1Q413.8 250.8 413.1 250.0Q412.4 249.3 411.2 249.3L411.2 249.3Q410.4 249.3 409.7 249.7Q409.1 250.1 408.7 250.8Q408.3 251.5 408.3 252.5L408.3 252.5L408.3 263.0ZM435.0 269.5L435.0 269.5Q434.1 269.5 433.3 269.4Q432.5 269.2 432.0 269.0L432.0 269.0L433.1 265.4Q433.9 265.6 434.6 265.7Q435.3 265.7 435.8 265.3Q436.3 265.0 436.6 264.2L436.6 264.2L436.9 263.5L430.6 245.5L435.7 245.5L439.4 258.3L439.5 258.3L443.2 245.5L448.3 245.5L441.5 264.8Q441.0 266.2 440.2 267.3Q439.4 268.3 438.1 268.9Q436.8 269.5 435.0 269.5Z M463.0 269.5L458.2 269.5L458.2 245.5L463.0 245.5L463.0 248.4L463.2 248.4Q463.5 247.7 464.1 247.0Q464.7 246.3 465.7 245.8Q466.7 245.3 468.2 245.3L468.2 245.3Q470.1 245.3 471.7 246.3Q473.3 247.3 474.3 249.3Q475.2 251.2 475.2 254.2L475.2 254.2Q475.2 257.2 474.3 259.2Q473.4 261.2 471.7 262.2Q470.1 263.2 468.1 263.2L468.1 263.2Q466.7 263.2 465.8 262.8Q464.8 262.3 464.1 261.6Q463.5 260.9 463.2 260.2L463.2 260.2L463.0 260.2L463.0 269.5ZM462.9 254.2L462.9 254.2Q462.9 255.8 463.4 256.9Q463.8 258.1 464.6 258.7Q465.4 259.4 466.6 259.4L466.6 259.4Q467.8 259.4 468.6 258.7Q469.4 258.1 469.9 256.9Q470.3 255.7 470.3 254.2L470.3 254.2Q470.3 252.7 469.9 251.6Q469.4 250.4 468.6 249.8Q467.8 249.1 466.6 249.1L466.6 249.1Q465.4 249.1 464.6 249.7Q463.8 250.4 463.4 251.5Q462.9 252.7 462.9 254.2ZM486.3 263.3L486.3 263.3Q483.7 263.3 481.8 262.2Q479.8 261.0 478.8 259.0Q477.7 257.0 477.7 254.3L477.7 254.3Q477.7 251.6 478.8 249.6Q479.8 247.5 481.8 246.4Q483.7 245.3 486.3 245.3L486.3 245.3Q489.0 245.3 490.9 246.4Q492.8 247.5 493.9 249.6Q494.9 251.6 494.9 254.3L494.9 254.3Q494.9 257.0 493.9 259.0Q492.8 261.0 490.9 262.2Q489.0 263.3 486.3 263.3ZM486.4 259.5L486.4 259.5Q487.6 259.5 488.4 258.9Q489.2 258.2 489.6 257.0Q490.0 255.8 490.0 254.3L490.0 254.3Q490.0 252.7 489.6 251.5Q489.2 250.3 488.4 249.7Q487.6 249.0 486.4 249.0L486.4 249.0Q485.1 249.0 484.3 249.7Q483.5 250.3 483.1 251.5Q482.7 252.7 482.7 254.3L482.7 254.3Q482.7 255.8 483.1 257.0Q483.5 258.2 484.3 258.9Q485.1 259.5 486.4 259.5ZM502.9 263.0L498.1 263.0L498.1 245.5L502.8 245.5L502.8 248.5L503.0 248.5Q503.4 246.9 504.6 246.1Q505.7 245.2 507.1 245.2L507.1 245.2Q507.5 245.2 507.9 245.3Q508.4 245.3 508.7 245.4L508.7 245.4L508.7 249.7Q508.3 249.6 507.7 249.5Q507.1 249.5 506.6 249.5L506.6 249.5Q505.6 249.5 504.7 249.9Q503.9 250.4 503.4 251.2Q502.9 252.0 502.9 253.1L502.9 253.1L502.9 263.0ZM510.8 245.5L521.3 245.5L521.3 249.1L510.8 249.1L510.8 245.5ZM513.2 258.2L513.2 241.3L518.0 241.3L518.0 257.6Q518.0 258.3 518.2 258.6Q518.4 259.0 518.8 259.1Q519.2 259.3 519.7 259.3L519.7 259.3Q520.0 259.3 520.4 259.2Q520.7 259.2 520.9 259.1L520.9 259.1L521.6 262.7Q521.3 262.8 520.6 263.0Q520.0 263.2 519.0 263.2L519.0 263.2Q517.3 263.3 515.9 262.7Q514.6 262.2 513.9 261.1Q513.2 259.9 513.2 258.2L513.2 258.2ZM523.1 245.5L533.9 245.5L533.9 249.1L523.1 249.1L523.1 245.5ZM530.4 263.0L525.5 263.0L525.5 244.2Q525.5 242.3 526.3 241.1Q527.0 239.8 528.3 239.2Q529.6 238.6 531.3 238.6L531.3 238.6Q532.4 238.6 533.3 238.8Q534.2 238.9 534.7 239.1L534.7 239.1L533.8 242.7Q533.5 242.6 533.1 242.5Q532.7 242.5 532.3 242.5L532.3 242.5Q531.2 242.5 530.8 242.9Q530.4 243.4 530.4 244.3L530.4 244.3L530.4 263.0ZM544.1 263.3L544.1 263.3Q541.4 263.3 539.5 262.2Q537.6 261.0 536.5 259.0Q535.5 257.0 535.5 254.3L535.5 254.3Q535.5 251.6 536.5 249.6Q537.6 247.5 539.5 246.4Q541.4 245.3 544.1 245.3L544.1 245.3Q546.7 245.3 548.7 246.4Q550.6 247.5 551.6 249.6Q552.7 251.6 552.7 254.3L552.7 254.3Q552.7 257.0 551.6 259.0Q550.6 261.0 548.7 262.2Q546.7 263.3 544.1 263.3ZM544.1 259.5L544.1 259.5Q545.3 259.5 546.1 258.9Q546.9 258.2 547.3 257.0Q547.8 255.8 547.8 254.3L547.8 254.3Q547.8 252.7 547.3 251.5Q546.9 250.3 546.1 249.7Q545.3 249.0 544.1 249.0L544.1 249.0Q542.9 249.0 542.1 249.7Q541.2 250.3 540.8 251.5Q540.4 252.7 540.4 254.3L540.4 254.3Q540.4 255.8 540.8 257.0Q541.2 258.2 542.1 258.9Q542.9 259.5 544.1 259.5ZM555.8 239.7L560.7 239.7L560.7 263.0L555.8 263.0L555.8 239.7ZM569.4 263.0L564.5 263.0L564.5 245.5L569.4 245.5L569.4 263.0ZM567.0 243.2L567.0 243.2Q565.9 243.2 565.1 242.5Q564.4 241.8 564.4 240.8L564.4 240.8Q564.4 239.8 565.1 239.1Q565.9 238.3 567.0 238.3L567.0 238.3Q568.0 238.3 568.8 239.1Q569.6 239.8 569.6 240.8L569.6 240.8Q569.6 241.8 568.8 242.5Q568.0 243.2 567.0 243.2ZM581.1 263.3L581.1 263.3Q578.5 263.3 576.6 262.2Q574.6 261.0 573.6 259.0Q572.5 257.0 572.5 254.3L572.5 254.3Q572.5 251.6 573.6 249.6Q574.6 247.5 576.6 246.4Q578.5 245.3 581.1 245.3L581.1 245.3Q583.8 245.3 585.7 246.4Q587.6 247.5 588.7 249.6Q589.7 251.6 589.7 254.3L589.7 254.3Q589.7 257.0 588.7 259.0Q587.6 261.0 585.7 262.2Q583.8 263.3 581.1 263.3ZM581.1 259.5L581.1 259.5Q582.4 259.5 583.2 258.9Q584.0 258.2 584.4 257.0Q584.8 255.8 584.8 254.3L584.8 254.3Q584.8 252.7 584.4 251.5Q584.0 250.3 583.2 249.7Q582.4 249.0 581.1 249.0L581.1 249.0Q579.9 249.0 579.1 249.7Q578.3 250.3 577.9 251.5Q577.5 252.7 577.5 254.3L577.5 254.3Q577.5 255.8 577.9 257.0Q578.3 258.2 579.1 258.9Q579.9 259.5 581.1 259.5Z "/></svg>